<?xml version="1.0" standalone="no"?>
<!DOCTYPE svg PUBLIC "-//W3C//DTD SVG 20010904//EN"
 "http://www.w3.org/TR/2001/REC-SVG-20010904/DTD/svg10.dtd">
<svg version="1.0" xmlns="http://www.w3.org/2000/svg"
 width="896.000000pt" height="897.000000pt" viewBox="0 0 896.000000 897.000000"
 preserveAspectRatio="xMidYMid meet">

<g transform="translate(0.000000,897.000000) scale(0.100000,-0.100000)"
fill="#000000" stroke="none">
<path d="M5127 8193 c-4 -3 -7 -692 -7 -1529 l0 -1523 -102 -127 c-57 -69
-185 -228 -285 -352 l-182 -227 1816 -3 c1719 -2 1817 -1 1836 15 11 10 97
115 192 233 95 118 221 273 279 344 l106 130 0 1523 0 1523 -1823 0 c-1003 0
-1827 -3 -1830 -7z m3351 -1520 l-3 -1218 -1527 -3 -1528 -2 0 1220 0 1220
1530 0 1530 0 -2 -1217z"/>
<path d="M740 5945 l0 -1525 1830 0 1830 0 0 1525 0 1525 -1830 0 -1830 0 0
-1525z"/>
<path d="M740 3083 c0 -1368 -4 -1291 76 -1451 62 -128 162 -228 289 -294 175
-90 11 -82 1753 -85 l1542 -4 0 1526 0 1525 -1830 0 -1830 0 0 -1217z"/>
<path d="M4520 2775 l0 -1525 1825 0 1825 0 0 1525 0 1525 -1825 0 -1825 0 0
-1525z"/>
</g>
</svg>
